<?xml version="1.0" encoding="UTF-8"?>
<svg id="Layer_2" data-name="Layer 2" xmlns="http://www.w3.org/2000/svg" xmlns:xlink="http://www.w3.org/1999/xlink" viewBox="0 0 1468.62 503.9">
  <defs>
    <style>
      .cls-1 {
        fill: url(#linear-gradient-2);
      }

      .cls-2 {
        fill: #fff;
      }

      .cls-3 {
        fill: url(#linear-gradient-15);
      }

      .cls-4 {
        fill: url(#linear-gradient-14);
      }

      .cls-5 {
        fill: url(#linear-gradient-6);
      }

      .cls-6 {
        fill: url(#linear-gradient-11);
      }

      .cls-7 {
        fill: url(#linear-gradient-10);
      }

      .cls-8 {
        fill: #f9f9f9;
      }

      .cls-9 {
        fill: url(#linear-gradient-5);
      }

      .cls-10 {
        fill: url(#linear-gradient-7);
      }

      .cls-11 {
        fill: url(#linear-gradient-9);
      }

      .cls-12 {
        fill: url(#linear-gradient-3);
      }

      .cls-13 {
        fill: url(#linear-gradient);
      }

      .cls-14 {
        fill: url(#linear-gradient-4);
      }

      .cls-15 {
        fill: url(#linear-gradient-8);
      }

      .cls-16 {
        fill: url(#linear-gradient-12);
      }

      .cls-17 {
        fill: url(#linear-gradient-13);
      }
    </style>
    <linearGradient id="linear-gradient" x1="1088.2" y1="130.77" x2="1119.89" y2="130.77" gradientUnits="userSpaceOnUse">
      <stop offset="0" stop-color="#23ccfc"/>
      <stop offset="1" stop-color="#008cf3"/>
    </linearGradient>
    <linearGradient id="linear-gradient-2" x1="1073.12" y1="121.01" x2="1095.16" y2="121.01" xlink:href="#linear-gradient"/>
    <linearGradient id="linear-gradient-3" x1="1114.41" y1="20.6" x2="1142.47" y2="20.6" xlink:href="#linear-gradient"/>
    <linearGradient id="linear-gradient-4" x1="1101.66" y1="105.98" x2="1174.92" y2="105.98" xlink:href="#linear-gradient"/>
    <linearGradient id="linear-gradient-5" x1="1161.86" y1="80.43" x2="1202.74" y2="80.43" xlink:href="#linear-gradient"/>
    <linearGradient id="linear-gradient-6" x1="1073.28" y1="19.05" x2="1118.8" y2="19.05" xlink:href="#linear-gradient"/>
    <linearGradient id="linear-gradient-7" x1="1113.63" y1="48.08" x2="1185.21" y2="48.08" xlink:href="#linear-gradient"/>
    <linearGradient id="linear-gradient-8" x1="1139" y1="-5.24" x2="1065.84" y2="103.75" gradientUnits="userSpaceOnUse">
      <stop offset="0" stop-color="#23ccfc"/>
      <stop offset=".29" stop-color="#21c8fb"/>
      <stop offset=".52" stop-color="#1bbefa"/>
      <stop offset=".73" stop-color="#12adf7"/>
      <stop offset=".93" stop-color="#0596f4"/>
      <stop offset="1" stop-color="#008cf3"/>
    </linearGradient>
    <linearGradient id="linear-gradient-9" x1="1109.41" y1="31.99" x2="1114.41" y2="31.99" xlink:href="#linear-gradient"/>
    <linearGradient id="linear-gradient-10" x1="1345.49" y1="453.97" x2="1450.84" y2="-62.97" gradientUnits="userSpaceOnUse">
      <stop offset="0" stop-color="#e5e5e5"/>
      <stop offset=".23" stop-color="#f0f0f0"/>
      <stop offset=".6" stop-color="#fbfbfb"/>
      <stop offset="1" stop-color="#fff"/>
    </linearGradient>
    <linearGradient id="linear-gradient-11" x1="1092.7" y1="402.45" x2="1198.05" y2="-114.49" xlink:href="#linear-gradient-10"/>
    <linearGradient id="linear-gradient-12" x1="779.74" y1="338.67" x2="885.09" y2="-178.27" xlink:href="#linear-gradient-10"/>
    <linearGradient id="linear-gradient-13" x1="0" y1="341.26" x2="567.78" y2="341.26" gradientUnits="userSpaceOnUse">
      <stop offset="0" stop-color="#cbcbcb"/>
      <stop offset=".08" stop-color="#d1d1d1"/>
      <stop offset=".42" stop-color="#eaeaea"/>
      <stop offset=".74" stop-color="#f9f9f9"/>
      <stop offset="1" stop-color="#fff"/>
    </linearGradient>
    <linearGradient id="linear-gradient-14" x1="3095.36" y1="187.61" x2="3599.14" y2="187.61" gradientTransform="translate(-2867.25) skewX(-31)" gradientUnits="userSpaceOnUse">
      <stop offset="0" stop-color="#fff"/>
      <stop offset=".28" stop-color="#f5f5f5"/>
      <stop offset=".74" stop-color="#dcdcdc"/>
      <stop offset="1" stop-color="#cbcbcb"/>
    </linearGradient>
    <linearGradient id="linear-gradient-15" x1="191.65" y1="135.85" x2="699.07" y2="135.85" gradientUnits="userSpaceOnUse">
      <stop offset="0" stop-color="#cbcbcb"/>
      <stop offset=".26" stop-color="#dcdcdc"/>
      <stop offset=".72" stop-color="#f5f5f5"/>
      <stop offset="1" stop-color="#fff"/>
    </linearGradient>
  </defs>
  <g id="Layer_1-2" data-name="Layer 1">
    <g>
      <g>
        <path class="cls-2" d="m741.27,55.36c1.91,0,3.56.13,4.95.4,1.39.27,2.6.78,3.65,1.54,1.04.76,1.97,1.79,2.8,3.08.82,1.29,1.67,3.01,2.54,5.15l27.09,64.24c.35.8.95,1.2,1.82,1.2h1.56c.87,0,1.48-.4,1.82-1.2l27.09-64.24c.87-2.14,1.71-3.86,2.54-5.15.82-1.29,1.76-2.32,2.8-3.08,1.04-.76,2.23-1.27,3.58-1.54,1.35-.27,2.97-.4,4.88-.4h13.94c4.51,0,7.55,1.05,9.12,3.15,1.56,2.1,2.34,5.69,2.34,10.77v76.82c0,1.96-1,2.94-3,2.94h-13.28c-1.91,0-2.87-.98-2.87-2.94v-69.86c0-.89-.35-1.34-1.04-1.34h-1.17c-.87,0-1.43.36-1.69,1.07l-26.31,59.96c-1.04,2.41-2.11,4.44-3.19,6.09-1.09,1.65-2.26,3.01-3.52,4.08-1.26,1.07-2.69,1.83-4.3,2.28-1.61.45-3.5.67-5.67.67h-6.25c-2.17,0-4.06-.22-5.67-.67-1.61-.45-3.04-1.2-4.3-2.28-1.26-1.07-2.43-2.43-3.52-4.08-1.09-1.65-2.15-3.68-3.19-6.09l-26.31-59.96c-.26-.71-.83-1.07-1.69-1.07h-1.17c-.7,0-1.04.45-1.04,1.34v69.86c0,1.96-.96,2.94-2.87,2.94h-13.28c-2,0-3-.98-3-2.94v-76.82c0-5.09.78-8.68,2.34-10.77,1.56-2.1,4.64-3.15,9.25-3.15h14.2Z"/>
        <path class="cls-2" d="m1015.8,55.36c2,0,3,.98,3,2.94v12.71c0,1.96-1,2.94-3,2.94h-56.91c-3.39,0-6.19.29-8.4.87-2.21.58-3.99,1.56-5.34,2.94-1.35,1.38-2.28,3.26-2.8,5.62-.52,2.37-.78,5.29-.78,8.77v1.34h73.58c1.91,0,2.86.98,2.86,2.94v10.57c0,1.96-.96,2.94-2.86,2.94h-73.58v2.28c0,3.48.26,6.4.78,8.77.52,2.37,1.45,4.24,2.8,5.62,1.35,1.38,3.13,2.37,5.34,2.94,2.21.58,5.01.87,8.4.87h56.91c2,0,3,.98,3,2.94v12.71c0,1.96-1,2.94-3,2.94h-57.3c-6.6,0-12.2-.62-16.8-1.87-4.6-1.25-8.36-3.28-11.27-6.09-2.91-2.81-5.04-6.47-6.38-10.97-1.35-4.5-2.02-9.97-2.02-16.4v-23.02c0-6.42.67-11.87,2.02-16.33,1.35-4.46,3.47-8.1,6.38-10.91,2.91-2.81,6.66-4.86,11.27-6.16,4.6-1.29,10.2-1.94,16.8-1.94h57.3Z"/>
        <path class="cls-2" d="m1273.8,55.36c1.91,0,2.87.98,2.87,2.94v87.8c0,1.96-.96,2.94-2.87,2.94h-14.07c-2,0-3-.98-3-2.94V58.3c0-1.96,1-2.94,3-2.94h14.07Z"/>
        <path class="cls-2" d="m1406.1,55.36c3.3,0,6.08.69,8.34,2.07,2.26,1.38,4.47,4.08,6.64,8.1l43.11,80.44c.43.89.54,1.63.33,2.21-.22.58-.85.87-1.89.87h-16.54c-1.48,0-2.47-.58-3-1.74l-9.25-17.27h-61.21l-8.99,17.27c-.61,1.16-1.61,1.74-3,1.74h-16.93c-1.13,0-1.8-.29-2.02-.87-.22-.58-.11-1.32.33-2.21l42.72-80.44c2.17-4.02,4.3-6.71,6.38-8.1,2.08-1.38,4.51-2.07,7.29-2.07h7.68Zm-25.27,59.16h44.8l-20.71-39.21c-.35-.62-.83-.94-1.43-.94h-.78c-.61,0-1.09.31-1.43.94l-20.45,39.21Z"/>
        <g>
          <path class="cls-13" d="m1096.66,123.01l-1.73,1.17c-.45-1.69.22-6.24.22-7.31v-1.8l-6.96,30.65s0,0,0,0c9.21,2.78,18.71-2.93,27.33-8.02,1.45-.86,2.91-1.7,4.36-2.55-5.91-4.92-12.04-10.03-18.24-15.2,0,0,0,0,0,0-1.7.97-3.39,1.97-4.99,3.06Z"/>
          <path class="cls-1" d="m1094.89,114.31c-7.24-6.05-14.5-12.12-21.53-18.01v9.96c0,11.33-2.19,25.66,6.52,34.31,2.72,2.7,5.5,4.31,8.31,5.16,0,0,0,0,0,0l6.96-30.64-.26-.77Z"/>
          <path class="cls-12" d="m1142.47,24.91c-7.89-4.66-15.78-9.32-23.67-13.98l-4.39,19.33,28.06-5.35Z"/>
          <path class="cls-14" d="m1107.17,116.81c-1.81,1.07-3.67,2.09-5.51,3.14,0,0,0,0,0,0,6.2,5.17,12.33,10.28,18.24,15.2,13.91-8.13,28.01-16.04,41.96-24.19,0,0,0,0,0,0l13.06-34.15c-22.58,13.33-45.17,26.67-67.75,40Z"/>
          <path class="cls-9" d="m1191.75,54.01c-2.14-1.41-4.33-2.76-6.53-4.11l-8.23,21.53c1.7.15,3.21,2.16,4.04,2.08-1.26,1.04-4.44,2.32-5.25,2.79-.29.17-.57.34-.85.51l-13.07,34.15c10.02-5.85,19.95-11.83,29.66-18.12,14.84-9.62,15-29.08.23-38.83Z"/>
          <path class="cls-5" d="m1095.16,22.34s0,0,0,0c.1.77.84.96,3.02,2.25,3.74,2.21,7.49,4.42,11.23,6.63l5-.95,4.39-19.33c-2.25-1.33-4.51-2.66-6.77-3.99-4.13-2.44-8.25-5.3-12.96-6.38-12.38-2.84-21.64,5.37-24.77,16.46-.6,1.36-.94,2.94-.94,4.75-.12,1.03-.11,1.97,0,2.85v13.48l21.79-4.16v-11.6Z"/>
          <path class="cls-10" d="m1113.63,33.71c11.79,6.96,23.59,13.93,35.38,20.89,9.22,5.44,18.39,11.96,28.03,16.64,0,0,0,0,.01,0l8.16-21.34s0,0,0,0c-8.58-5.25-17.48-10.07-26.11-15.17-5.54-3.27-11.09-6.54-16.63-9.82l-28.06,5.35-.78,3.45Z"/>
          <path class="cls-15" d="m1095.16,98.84V33.94l-21.79,4.16v58.2s0,0,0,0c7.12,5.97,14.46,12.11,21.79,18.23,0,0,0,0,0,0v-15.69Z"/>
          <polygon class="cls-11" points="1109.41 31.22 1113.63 33.71 1114.41 30.27 1109.41 31.22"/>
        </g>
      </g>
      <g>
        <g>
          <path class="cls-7" d="m1458.51,197.91c-7.47-9.75-20.67-14.69-39.24-14.69h-45.33c-6.94,0-13.06.5-18.18,1.49-6.04,1.17-11.54,3.48-16.34,6.88-4.61,3.27-8.72,7.63-12.22,12.97-3.09,4.71-6.2,10.82-9.24,18.13l-80.07,184.79c28.21,5.28,56.52,9.61,84.92,12.74l59.4-131.74v136.44c25.99,1.19,52.06,1.22,78.19-.15,2.74-.14,5.48-.31,8.22-.49v-184.93c0-19-3.31-32.56-10.12-41.44Z"/>
          <path class="cls-6" d="m1137.69,204.55c-3.51-5.34-7.63-9.71-12.23-12.97-4.81-3.4-10.4-5.71-16.61-6.88-5.23-.98-11.39-1.48-18.32-1.48h-46.17c-19.11,0-32.09,4.81-39.66,14.69-6.8,8.89-10.11,22.44-10.11,41.44v105.55c28.69,8.6,57.5,17.09,86.42,25.15v-81.55c5.76,12.76,24.52,54.39,41.87,92.85,34.23,8.93,68.62,17.05,103.15,23.84l-79.02-182.34c-3.09-7.43-6.23-13.58-9.32-18.3Z"/>
          <path class="cls-16" d="m941.29,215.06c-11.81-11.01-27.01-19.22-45.18-24.39-17.38-4.94-38.3-7.45-62.19-7.45h-198.26c-13.66,0-24.78,11.12-24.78,24.78v46.93c29.76,3.68,59.42,8.36,88.96,13.85v-2.53h132.38c11.32,0,20.81,1,28.23,2.98,6.42,1.71,11.55,4.4,15.25,8,3.61,3.51,6.29,8.49,7.98,14.79,1.54,5.79,2.48,12.85,2.83,21.03,23.89,6.69,47.7,13.65,71.42,20.81,5.89,1.78,11.79,3.56,17.7,5.34v-24.44c0-21.78-2.7-41.07-8.01-57.35-5.56-16.99-14.42-31.24-26.33-42.35Z"/>
        </g>
        <g>
          <path class="cls-8" d="m994.59,482.51c0,12.8,8.77,21.39,21.82,21.39h43.21c12.8,0,21.39-8.6,21.39-21.39v-112.46c-28.92-8.06-57.73-16.55-86.42-25.15v137.61Z"/>
          <path class="cls-8" d="m1232.45,420.02l-6.43-14.83c-34.53-6.79-68.92-14.9-103.15-23.84,17.32,38.42,33.22,73.67,33.3,73.87,3.67,8.26,7.51,15.37,11.41,21.12,4.15,6.15,8.78,11.35,13.75,15.46,5.42,4.49,11.65,7.71,18.52,9.56,6.2,1.68,13.47,2.54,21.59,2.54h20.33c8.11,0,15.37-.85,21.58-2.53,6.88-1.86,13.11-5.07,18.53-9.56,4.96-4.1,9.58-9.31,13.74-15.46,3.9-5.78,7.73-12.87,11.38-21.07l15.81-35.06c-28.4-3.14-56.71-7.46-84.92-12.74l-5.43,12.54Z"/>
          <path class="cls-8" d="m1460.4,424.77c-26.14,1.37-52.2,1.34-78.19.15v57.59c0,12.8,8.6,21.39,21.39,21.39h43.21c13.05,0,21.82-8.6,21.82-21.39v-58.23c-2.74.18-5.48.35-8.22.49Z"/>
          <path class="cls-8" d="m612.82,498.5c-.03,2.97,2.37,5.4,5.35,5.4h215.76c23.89,0,44.82-2.5,62.19-7.45,18.16-5.17,33.36-13.37,45.17-24.39,11.91-11.11,20.77-25.36,26.33-42.36,5.32-16.27,8.01-35.56,8.01-57.34v-33.17c-5.9-1.78-11.8-3.56-17.7-5.34-23.67-7.14-47.43-14.1-71.27-20.77v7.17s0,46.6,0,46.6c0,11.31-1,20.81-2.98,28.23-1.69,6.31-4.38,11.29-7.98,14.8-3.71,3.6-8.84,6.3-15.25,8-7.39,1.98-16.89,2.98-28.23,2.98h-138.08c-.45-.03-.9-.06-1.25-.06h-74.89c-2.93,0-5.32,2.36-5.35,5.29l.16,72.39Z"/>
          <path class="cls-8" d="m631.63,399.49h47.48c11.43,0,20.74-9.3,20.74-20.74v-109.97c-29.54-5.49-59.2-10.17-88.96-13.85v123.82c0,11.44,9.3,20.74,20.74,20.74Z"/>
        </g>
      </g>
      <g>
        <path class="cls-17" d="m565.92,441.96c7.11-19.22-7.09-39.64-27.58-39.67-91.52-.1-305.96-.34-382.15-.49-12.64-.02-23.79-12.99-18.75-24.59l71.28-153.1-87.24-45.5S30.24,370.01,27.35,374.81l-21.11,47.07s-26.85,68.88,30.78,82.03c69.78-.72,399.47-.19,485.44-.04,12.34.02,23.38-7.65,27.67-19.23l15.8-42.68Z"/>
        <path class="cls-4" d="m177.99,329.43h338.64c12.43,0,23.62-7.52,28.31-19.03l17.8-43.66c8.2-20.12-6.62-42.14-28.35-42.12l-293.62.33s-84.95-9.77-28.82-96.68c49.09-75.19,135.61-81.05,135.61-81.05,0,0-93.33-10.8-145.55,27.02-26.39,19.11-49.7,52.36-72.1,89.19-86.85,144.53,48.08,166.01,48.08,166.01Z"/>
        <path class="cls-3" d="m240.78,224.94c-19.92-5.86-25.57-22.46-11.48-45.9,12.18-20.27,37.07-25.2,43.56-26.16.92-.14,1.86-.2,2.79-.2h381.41c8.28,0,15.64-5.29,18.29-13.14l22.69-67.32c4.22-12.52-5.1-25.48-18.31-25.46l-331.3.46c-.63,0-1.25.03-1.88.09-10.17,1.02-94.22,11.53-139.09,84.86,0,0-52.28,78.13,33.32,92.78Z"/>
      </g>
    </g>
  </g>
</svg>