<svg width="120" height="120" viewBox="0 0 120 120" fill="none" xmlns="http://www.w3.org/2000/svg">
<path d="M117.422 66.7252C115.998 66.7252 114.844 65.5709 114.844 64.1471V8.94824C114.844 7.52441 115.998 6.37012 117.422 6.37012C118.846 6.37012 120 7.52441 120 8.94824V64.1471C120 65.5709 118.846 66.7252 117.422 66.7252Z" fill="#12ADF7"/>
<path d="M112.377 64.0265H114.844V58.8703H107.164L77.062 29.0943C76.5794 28.6169 75.9279 28.349 75.2491 28.349H64.7883C64.1015 28.349 63.4434 28.6228 62.9594 29.11L56.2959 35.8164C53.5849 38.5272 49.174 38.5272 46.4634 35.8164L44.243 33.596L60.0776 17.7611C60.4992 17.3343 61.0376 16.9209 61.6441 16.5386C63.5374 15.3449 66.1087 14.4595 67.9814 14.4595C67.9814 14.4595 110.211 14.4595 114.844 14.4595V9.30322H67.9814C65.6533 9.30322 62.8512 10.0966 60.4144 11.3289C57.9232 10.0631 55.1304 9.30322 52.8363 9.30322H5.15623V14.4595H52.8363C53.6472 14.4595 54.6145 14.632 55.6129 14.9338L38.774 31.7728C37.7672 32.7796 37.7672 34.4121 38.774 35.4189L42.8175 39.4624C47.5387 44.1834 55.2206 44.1831 59.9477 39.4565L65.861 33.5053H74.1893L109.315 68.2502C110.268 69.2031 110.793 70.4706 110.793 71.8185C110.812 76.2794 105.324 78.5486 102.179 75.3871C102.179 75.3869 102.178 75.3869 102.178 75.3867C99.6602 73.0647 96.2119 76.521 98.5322 79.0328C100.5 81.0006 100.5 84.2024 98.5322 86.17C96.5646 88.1376 93.363 88.1374 91.3957 86.17C90.356 85.1163 88.5862 85.176 87.6246 86.3036C86.7382 87.3257 86.7923 88.8592 87.749 89.8157C89.6948 91.6792 89.6953 95.0889 87.7495 96.9524C85.8865 98.8973 82.4761 98.898 80.6133 96.9524L79.8815 96.2205L79.8813 96.2203C78.8744 95.2136 77.2422 95.2136 76.2354 96.2203C75.2285 97.2269 75.2283 98.8593 76.2349 99.8662C77.1823 100.814 77.7044 102.081 77.7044 103.435C77.7044 104.789 77.1825 106.056 76.2354 107.003C74.3719 108.948 70.9619 108.949 69.0987 107.003C69.0694 106.995 64.0294 102.025 64.0015 102.013L66.9208 99.0937C73.5419 92.4295 68.3611 81.1319 59.0979 81.7019C59.5601 75.6536 54.2229 70.461 48.3152 70.919C48.7748 64.9373 43.5171 59.6803 37.5361 60.1399C38.1051 50.8729 26.8052 45.6981 20.1443 52.3169L13.5904 58.8705H5.15623V64.0267H8.43443C1.09521 70.589 5.90623 82.4718 15.6797 81.9963C15.2137 88.0413 20.5863 93.3283 26.6224 92.7632C26.2551 98.9479 31.8623 104.151 37.9999 103.338C37.8626 108.789 42.618 113.693 48.1987 113.582C50.9292 113.581 53.4907 112.523 55.4109 110.603L60.3553 105.659L65.4626 110.659C67.3826 112.574 69.9408 113.628 72.6672 113.628C78.1429 113.739 82.9404 108.968 82.8604 103.494C89.1042 104.388 94.8178 99.0759 94.3575 92.7813C100.341 93.2285 105.587 87.9857 105.144 82.0035C114.951 82.4669 119.717 70.5231 112.377 64.0265ZM18.6394 75.3869C16.6718 77.3545 13.4702 77.3545 11.5029 75.3869C9.55732 73.5231 9.55709 70.1142 11.5029 68.2504L23.7902 55.9631C28.7189 51.426 35.4647 58.1692 30.9269 63.0996L18.6394 75.3869ZM29.4218 86.1693C27.5585 88.1142 24.1488 88.1151 22.2855 86.1691C20.34 84.3053 20.3397 80.8963 22.2855 79.0328L34.5731 66.7455C37.7367 63.6046 43.1857 65.8225 43.1784 70.3141C43.1784 71.6678 42.6567 72.9351 41.7091 73.8822L29.4218 86.1693ZM40.3732 96.7835C39.4261 97.7308 38.1588 98.2523 36.8048 98.2523C34.0783 98.3062 31.7133 95.9418 31.7676 93.2151C31.7676 91.8614 32.2894 90.5941 33.2367 89.6467L45.3553 77.5279H45.3551C47.3229 75.5603 50.5247 75.5601 52.492 77.5279C54.4376 79.3917 54.4378 82.8011 52.492 84.6646L40.3732 96.7835ZM58.4894 100.233L51.765 106.957C50.8181 107.904 49.5504 108.426 48.1961 108.426C43.7299 108.451 41.4696 102.97 44.6264 99.8228L56.1382 88.3108C61.0633 83.7749 67.8138 90.5146 63.2749 95.4473C63.2636 95.4585 58.4997 100.222 58.4894 100.233Z" fill="white"/>
<path d="M2.57812 66.7252C1.1543 66.7252 0 65.5709 0 64.1471V8.94824C0 7.52441 1.1543 6.37012 2.57812 6.37012C4.00195 6.37012 5.15625 7.52441 5.15625 8.94824V64.1471C5.15625 65.5709 4.00195 66.7252 2.57812 66.7252Z" fill="#12ADF7"/>
</svg>
