<svg width="148" height="148" viewBox="0 0 148 148" fill="none" xmlns="http://www.w3.org/2000/svg">
<path d="M144.82 103.119H137.715V23.7495C137.715 21.9935 136.292 20.5698 134.535 20.5698H13.4645C11.7085 20.5698 10.2848 21.9935 10.2848 23.7495V103.119H3.17969C1.42363 103.119 0 104.543 0 106.299V112.478C0 120.723 6.64468 127.43 14.8121 127.43H133.188C141.355 127.43 148 120.723 148 112.478V106.299C148 104.543 146.576 103.119 144.82 103.119ZM16.6442 26.9292H131.356V103.119H98.7195C96.8163 103.109 95.3796 104.779 95.5398 106.651H52.4608C52.6209 104.779 51.184 103.108 49.2811 103.119H16.6442V26.9292ZM141.641 112.478C141.641 117.216 137.849 121.07 133.188 121.07H14.8121C10.1513 121.07 6.35938 117.216 6.35938 112.478V109.479H46.1014C45.9413 111.35 47.3782 113.021 49.2811 113.01H98.7195C100.623 113.02 102.059 111.35 101.899 109.479H141.641V112.478Z" fill="white"/>
<path d="M31.6838 90.831C30.8701 90.831 30.0564 90.5206 29.4355 89.8997C28.1937 88.6578 28.1937 86.6445 29.4355 85.4027L53.2384 61.5999C53.8454 60.9931 54.6721 60.6581 55.5298 60.6688C56.388 60.6803 57.2049 61.0382 57.7951 61.6614L74.0974 78.8693L114.104 40.113C115.365 38.8905 117.378 38.9229 118.6 40.1844C119.822 41.4455 119.79 43.4586 118.528 44.6804L76.2125 85.6741C75.6023 86.2653 74.7857 86.5835 73.9318 86.5694C73.0825 86.5512 72.2757 86.1939 71.6915 85.5773L55.4248 68.407L33.9319 89.8999C33.3113 90.5206 32.4975 90.831 31.6838 90.831Z" fill="#12ADF7"/>
</svg>
