<svg width="128" height="128" viewBox="0 0 128 128" fill="none" xmlns="http://www.w3.org/2000/svg">
<g clip-path="url(#clip0_326_952)">
<path d="M30.6017 128H3.004C1.48525 128 0.253998 126.769 0.253998 125.25V102.377C0.253998 101.528 0.645748 100.727 1.31575 100.206L24.238 82.3775C29.157 78.5515 35.2977 76.4448 41.5295 76.4448H78.9775C84.698 76.4448 89.3518 81.0988 89.3518 86.8193C89.3518 88.152 89.099 89.427 88.6393 90.5985C88.6903 90.5568 88.7408 90.514 88.7903 90.47L109.873 71.82C114.112 68.071 120.815 68.276 124.816 72.277C124.816 72.277 124.816 72.277 124.816 72.2773C126.778 74.2385 127.817 76.8453 127.742 79.618C127.667 82.3905 126.49 84.9378 124.426 86.7905L96.7755 111.618C92.5327 115.427 87.056 117.525 81.3542 117.525H46.3862L32.1825 127.5C31.7192 127.826 31.1675 128 30.6017 128ZM5.754 122.5H29.7325L43.9362 112.525C44.3995 112.2 44.9512 112.026 45.5167 112.026H81.355C85.6982 112.026 89.87 110.427 93.1018 107.526L120.752 82.6985C121.681 81.8645 122.211 80.718 122.244 79.4703C122.278 78.2225 121.811 77.049 120.928 76.1663H120.927C118.977 74.2155 115.584 74.1123 113.518 75.9398L92.4348 94.5898C90.5365 96.269 88.0952 97.1938 85.561 97.1938H52.7407C51.222 97.1938 49.9907 95.9625 49.9907 94.4438C49.9907 92.925 51.222 91.6938 52.7407 91.6938H78.9778C81.6655 91.6938 83.852 89.507 83.852 86.8193C83.852 84.1315 81.6655 81.9448 78.9778 81.9448H41.5297C36.515 81.9448 31.5732 83.6403 27.6147 86.719L5.75425 103.722L5.754 122.5Z" fill="white"/>
<path d="M74.4742 30.4792C78.4697 27.3568 81.046 22.498 81.046 17.0457C81.0457 7.64675 73.399 0 64 0C54.601 0 46.954 7.64675 46.954 17.046C46.954 22.4982 49.53 27.357 53.5257 30.4795C43.1825 34.5163 35.835 44.5868 35.835 56.342V59.9338C35.835 61.4525 37.0662 62.6838 38.585 62.6838H89.415C90.9337 62.6838 92.165 61.4525 92.165 59.9338V56.342C92.165 44.5865 84.8175 34.5163 74.4742 30.4792ZM64 5.5C70.3665 5.5 75.546 10.6795 75.546 17.046C75.546 23.4125 70.3665 28.5917 64 28.5917C57.6335 28.5917 52.454 23.4123 52.454 17.0457C52.454 10.6792 57.6335 5.5 64 5.5ZM86.665 57.1835H41.335C40.8477 44.3158 51.5462 33.6093 64.4152 34.0918C76.9985 34.065 87.1155 44.6295 86.665 57.1835Z" fill="#12ADF7"/>
</g>
<defs>
<clipPath id="clip0_326_952">
<rect width="128" height="128" fill="white"/>
</clipPath>
</defs>
</svg>
