<svg width="128" height="128" viewBox="0 0 128 128" fill="none" xmlns="http://www.w3.org/2000/svg">
<g clip-path="url(#clip0_326_973)">
<path d="M126.367 71.9073C110.448 64.832 94.3052 64.832 78.3862 71.9073C77.3932 72.3485 76.7532 73.3335 76.7532 74.4203V90.0533C76.7532 106.345 86.3727 121.147 101.259 127.763C101.615 127.921 101.996 128 102.376 128C102.757 128 103.138 127.921 103.493 127.763C118.38 121.146 128 106.345 128 90.0533V74.4203C128 73.3333 127.36 72.3485 126.367 71.9073ZM122.5 90.0533C122.5 103.761 114.641 116.253 102.376 122.218C90.1117 116.253 82.2532 103.761 82.2532 90.0533V76.235C95.616 70.749 109.137 70.749 122.5 76.235V90.0533Z" fill="#12ADF7"/>
<path d="M96.2342 95.3491C95.16 94.2751 93.4192 94.2751 92.345 95.3491C91.271 96.4231 91.271 98.1644 92.345 99.2384L97.7362 104.63C98.2732 105.167 98.977 105.435 99.6807 105.435C100.384 105.435 101.088 105.167 101.625 104.63L112.408 93.8469C113.482 92.7729 113.482 91.0316 112.408 89.9576C111.334 88.8836 109.593 88.8836 108.519 89.9576L99.6805 98.7959L96.2342 95.3491Z" fill="#12ADF7"/>
<path d="M66.4957 68.8288V65.9968C66.4957 57.9095 61.7285 50.9173 54.8582 47.6748C57.3277 45.3208 58.8712 42.0038 58.8712 38.331C58.8712 31.209 53.0772 25.415 45.9552 25.415C38.8332 25.415 33.0392 31.209 33.0392 38.331C33.0392 42.0038 34.5827 45.321 37.0522 47.6748C30.182 50.9173 25.4147 57.9095 25.4147 65.9968V68.8288C25.4147 70.3475 26.646 71.5788 28.1647 71.5788H63.7457C65.2647 71.5788 66.4957 70.3478 66.4957 68.8288ZM45.9555 30.915C50.0445 30.915 53.3715 34.2418 53.3715 38.331C53.3715 42.42 50.0447 45.747 45.9555 45.747C41.8662 45.747 38.5395 42.4203 38.5395 38.331C38.5395 34.2418 41.8662 30.915 45.9555 30.915ZM60.9957 66.0788H30.915V65.9968C30.915 57.8635 37.5317 51.2468 45.665 51.2468H46.246C54.3792 51.2468 60.996 57.8635 60.996 65.9968L60.9957 66.0788Z" fill="white"/>
<path d="M30.7065 102.077H61.2045C62.7232 102.077 63.9545 100.845 63.9545 99.3267C63.9545 97.8079 62.7232 96.5767 61.2045 96.5767H30.7065C29.1877 96.5767 27.9565 97.8079 27.9565 99.3267C27.9565 100.845 29.1875 102.077 30.7065 102.077Z" fill="white"/>
<path d="M91.911 67.6075V28.165C91.9108 27.4428 91.617 26.7313 91.1055 26.2205L65.6905 0.8055C65.1797 0.29375 64.468 0.001 63.746 0H10.3745C4.654 0 0 4.654 0 10.3745V106.951C0 112.672 4.654 117.326 10.3745 117.326H87.06C85.5477 115.607 84.1855 113.766 82.98 111.826H10.3745C7.68675 111.826 5.5 109.639 5.5 106.951V10.3745C5.5 7.68675 7.68675 5.5 10.3745 5.5H60.9958V20.5405C60.9958 26.261 65.6497 30.915 71.3702 30.915H86.4108V68.9498C88.2425 68.4108 90.076 67.9605 91.911 67.6075ZM71.3702 25.415C68.6825 25.415 66.4958 23.2283 66.4958 20.5405V9.389L82.5218 25.415H71.3702Z" fill="white"/>
<path d="M30.7075 86.8276C32.2263 86.8276 33.4575 85.5964 33.4575 84.0776C33.4575 82.5589 32.2263 81.3276 30.7075 81.3276C29.1887 81.3276 27.9575 82.5589 27.9575 84.0776C27.9575 85.5964 29.1887 86.8276 30.7075 86.8276Z" fill="white"/>
<path d="M45.955 86.8276C47.4738 86.8276 48.705 85.5964 48.705 84.0776C48.705 82.5589 47.4738 81.3276 45.955 81.3276C44.4362 81.3276 43.205 82.5589 43.205 84.0776C43.205 85.5964 44.4362 86.8276 45.955 86.8276Z" fill="white"/>
<path d="M61.205 86.8276C62.7237 86.8276 63.9548 85.5965 63.9548 84.0779C63.9548 82.5592 62.7237 81.3281 61.205 81.3281C59.6864 81.3281 58.4553 82.5592 58.4553 84.0779C58.4553 85.5965 59.6864 86.8276 61.205 86.8276Z" fill="white"/>
</g>
<defs>
<clipPath id="clip0_326_973">
<rect width="128" height="128" fill="white"/>
</clipPath>
</defs>
</svg>
