<svg width="117" height="117" viewBox="0 0 117 117" fill="none" xmlns="http://www.w3.org/2000/svg">
<g clip-path="url(#clip0_326_959)">
<path d="M107.052 0H80.8018C75.3167 0 70.8542 4.46245 70.8542 9.94751V38.4813C73.971 40.4043 76.6067 43.0341 78.5369 46.1458H107.053C112.538 46.1458 117 41.6833 117 36.1982V9.94751C117 4.46245 112.538 0 107.052 0ZM111.973 36.1982C111.973 38.9112 109.765 41.1184 107.052 41.1184H75.8814V9.94751C75.8814 7.23458 78.0886 5.02734 80.8015 5.02734H107.052C109.765 5.02734 111.973 7.23458 111.973 9.94751V36.1982Z" fill="#12ADF7"/>
<path d="M38.5609 70.854H9.94751C4.46245 70.854 0 75.3167 0 80.8017V107.052C0 112.538 4.46245 117 9.94751 117H36.1982C41.6833 117 46.1458 112.538 46.1458 107.052V78.4576C43.0718 76.5402 40.4708 73.9333 38.5609 70.854ZM41.1186 107.052C41.1186 109.765 38.9114 111.973 36.1985 111.973H9.94751C7.23458 111.973 5.02734 109.765 5.02734 107.052V80.8017C5.02734 78.0888 7.23458 75.8816 9.94751 75.8816H41.1184L41.1186 107.052Z" fill="#12ADF7"/>
<path d="M28.7646 26.251H17.6138C16.2255 26.251 15.1001 27.3764 15.1001 28.7646C15.1001 30.1529 16.2255 31.2783 17.6138 31.2783H28.7646C30.1529 31.2783 31.2783 30.1529 31.2783 28.7646C31.2783 27.3764 30.1529 26.251 28.7646 26.251Z" fill="white"/>
<path d="M88.2354 31.2783H99.3862C100.774 31.2783 101.9 30.1529 101.9 28.7646C101.9 27.3764 100.774 26.251 99.3862 26.251H88.2354C86.8471 26.251 85.7217 27.3764 85.7217 28.7646C85.7217 30.1529 86.8471 31.2783 88.2354 31.2783Z" fill="white"/>
<path d="M107.052 70.854H78.5367C80.765 67.262 82.0538 63.0289 82.0538 58.5C82.0538 45.5391 71.5094 34.9949 58.5489 34.9949C53.9994 34.9949 49.7483 36.2954 46.146 38.5424V9.94751C46.146 4.46245 41.6833 0 36.1982 0H9.94751C4.46245 0 0 4.46245 0 9.94751V36.1982C0 41.6833 4.46245 46.1458 9.94751 46.1458H38.5606C36.3324 49.7378 35.0436 53.9708 35.0436 58.4998C35.0436 71.4607 45.588 82.0049 58.5487 82.0049C63.0571 82.0049 67.2725 80.728 70.854 78.5182V107.052C70.854 112.537 75.3165 117 80.8015 117H107.052C112.538 117 117 112.538 117 107.052V80.8018C117 75.3167 112.538 70.854 107.052 70.854ZM5.02734 36.1982V9.94751C5.02734 7.23458 7.23458 5.02734 9.94751 5.02734H36.1982C38.9112 5.02734 41.1184 7.23458 41.1184 9.94751V41.1184H9.94751C7.23458 41.1186 5.02734 38.9112 5.02734 36.1982ZM40.0711 58.5C40.0711 48.3112 48.3601 40.0222 58.5489 40.0222C68.7375 40.0222 77.0264 48.3112 77.0264 58.5C77.0264 68.6888 68.7375 76.9778 58.5489 76.9778C48.3601 76.9778 40.0711 68.6888 40.0711 58.5ZM111.973 107.052C111.973 109.765 109.765 111.973 107.052 111.973H80.8018C78.0888 111.973 75.8816 109.765 75.8816 107.052V75.8814H107.052C109.765 75.8814 111.973 78.0886 111.973 80.8015V107.052Z" fill="white"/>
<path d="M28.7646 96.8726H17.6138C16.2255 96.8726 15.1001 97.998 15.1001 99.3862C15.1001 100.774 16.2255 101.9 17.6138 101.9H28.7646C30.1529 101.9 31.2783 100.774 31.2783 99.3862C31.2783 97.998 30.1529 96.8726 28.7646 96.8726Z" fill="white"/>
<path d="M99.3862 96.8726H88.2354C86.8471 96.8726 85.7217 97.998 85.7217 99.3862C85.7217 100.774 86.8471 101.9 88.2354 101.9H99.3862C100.774 101.9 101.9 100.774 101.9 99.3862C101.9 97.998 100.774 96.8726 99.3862 96.8726Z" fill="white"/>
<path d="M62.217 61.5618H54.7832C53.395 61.5618 52.2695 62.6872 52.2695 64.0754C52.2695 65.4637 53.395 66.5891 54.7832 66.5891H62.217C63.6053 66.5891 64.7307 65.4637 64.7307 64.0754C64.7307 62.6872 63.6053 61.5618 62.217 61.5618Z" fill="white"/>
<path d="M23.1893 20.1284C24.5778 20.1284 25.7034 19.0027 25.7034 17.6142C25.7034 16.2257 24.5778 15.1001 23.1893 15.1001C21.8008 15.1001 20.6752 16.2257 20.6752 17.6142C20.6752 19.0027 21.8008 20.1284 23.1893 20.1284Z" fill="white"/>
<path d="M93.8102 20.1279C95.1985 20.1279 96.3239 19.0025 96.3239 17.6143C96.3239 16.226 95.1985 15.1006 93.8102 15.1006C92.422 15.1006 91.2966 16.226 91.2966 17.6143C91.2966 19.0025 92.422 20.1279 93.8102 20.1279Z" fill="white"/>
<path d="M93.8107 90.7477C95.1986 90.7477 96.3237 89.6226 96.3237 88.2347C96.3237 86.8468 95.1986 85.7217 93.8107 85.7217C92.4228 85.7217 91.2977 86.8468 91.2977 88.2347C91.2977 89.6226 92.4228 90.7477 93.8107 90.7477Z" fill="white"/>
<path d="M23.1895 90.7483C24.5778 90.7483 25.7032 89.6229 25.7032 88.2346C25.7032 86.8464 24.5778 85.7209 23.1895 85.7209C21.8013 85.7209 20.6759 86.8464 20.6759 88.2346C20.6759 89.6229 21.8013 90.7483 23.1895 90.7483Z" fill="white"/>
<path d="M58.5 55.4382C59.8883 55.4382 61.0137 54.3128 61.0137 52.9246C61.0137 51.5363 59.8883 50.4109 58.5 50.4109C57.1117 50.4109 55.9863 51.5363 55.9863 52.9246C55.9863 54.3128 57.1117 55.4382 58.5 55.4382Z" fill="white"/>
</g>
<defs>
<clipPath id="clip0_326_959">
<rect width="117" height="117" fill="white"/>
</clipPath>
</defs>
</svg>
