<svg width="139" height="139" viewBox="0 0 139 139" fill="none" xmlns="http://www.w3.org/2000/svg">
<g clip-path="url(#clip0_326_943)">
<path d="M52.8963 92.8414C49.9776 92.8414 47.6029 90.4667 47.6029 87.548C47.6029 84.6293 49.9776 82.2546 52.8963 82.2546C55.815 82.2546 58.1897 84.6293 58.1897 87.548C58.1897 89.1973 59.5268 90.5343 61.176 90.5343C62.8253 90.5343 64.1624 89.1973 64.1624 87.548C64.1624 82.386 60.6711 78.0265 55.9269 76.6995V69.7764C55.9269 68.1271 54.5898 66.79 52.9405 66.79C51.2913 66.79 49.9542 68.1271 49.9542 69.7764V76.6745C45.1647 77.9719 41.6302 82.354 41.6302 87.5483C41.6302 93.7604 46.6842 98.8143 52.8963 98.8143C55.815 98.8143 58.1897 101.189 58.1897 104.108C58.1897 107.026 55.815 109.401 52.8963 109.401C49.9776 109.401 47.6029 107.026 47.6029 104.108C47.6029 102.458 46.2658 101.121 44.6166 101.121C42.9673 101.121 41.6302 102.458 41.6302 104.108C41.6302 109.302 45.1647 113.684 49.9542 114.981V119.454C49.9542 121.104 51.2913 122.441 52.9405 122.441C54.5898 122.441 55.9269 121.104 55.9269 119.454V114.956C60.6711 113.629 64.1624 109.27 64.1624 104.108C64.1624 97.8954 59.1084 92.8414 52.8963 92.8414Z" fill="#12ADF7"/>
<path d="M139 94.6153C139 91.3442 137.598 88.3956 135.364 86.3356C137.598 84.2755 139 81.327 139 78.0558C139 71.8437 133.946 66.7898 127.734 66.7898H94.3392C93.7664 66.7898 93.2036 66.8335 92.6535 66.9163C88.1689 61.365 82.8101 56.7991 76.8732 53.4441C79.2552 51.3768 80.7661 48.331 80.7661 44.9369C80.7661 40.0912 77.6904 35.9505 73.389 34.3631L80.6189 12.1918C80.9154 11.2823 80.7585 10.286 80.1965 9.512C79.6345 8.738 78.7362 8.27973 77.7797 8.27973H63.8018C62.4895 3.51274 58.1186 0 52.9405 0C47.762 0 43.3881 3.51246 42.076 8.27973H28.1013C27.1449 8.27973 26.2463 8.738 25.6846 9.512C25.1229 10.286 24.966 11.2823 25.2622 12.1918L32.4918 34.3631C28.1904 35.9502 25.115 40.0909 25.115 44.9369C25.115 48.3326 26.6272 51.3798 29.0111 53.4471C21.5895 57.6464 14.9775 63.7622 9.97596 71.1414C3.54287 80.6319 0 91.9089 0 102.895C0 116.678 5.47231 126.597 16.2652 132.376C24.7064 136.895 36.3604 139 52.9405 139C66.9079 139 77.2745 137.514 85.2271 134.348C87.2771 137.164 90.597 139 94.3392 139H127.734C133.946 139 139 133.946 139 127.734C139 124.463 137.598 121.514 135.364 119.454C137.598 117.394 139 114.446 139 111.174C139 107.904 137.598 104.955 135.364 102.895C137.598 100.835 139 97.8861 139 94.6153ZM133.027 78.0558C133.027 80.9746 130.653 83.3492 127.734 83.3492H94.3392C91.4205 83.3492 89.0458 80.9746 89.0458 78.0558C89.0458 75.1371 91.4205 72.7624 94.3392 72.7624H127.734C130.653 72.7624 133.027 75.1371 133.027 78.0558ZM44.6608 14.2524C46.3101 14.2524 47.6471 12.9153 47.6471 11.2661C47.6471 8.34733 50.0218 5.97266 52.9405 5.97266C55.8593 5.97266 58.2339 8.34733 58.2339 11.2661V19.5458C58.2339 21.1951 59.571 22.5321 61.2203 22.5321C62.8695 22.5321 64.2066 21.1951 64.2066 19.5458V14.2524H73.6648L67.3327 33.6706H38.5483L32.2165 14.2524H44.6608ZM36.3718 39.6438C36.3746 39.6438 36.3776 39.644 36.3803 39.644C36.3871 39.644 36.3938 39.6432 36.4006 39.6432H69.4799C69.4867 39.6432 69.4935 39.644 69.5003 39.644C69.503 39.644 69.506 39.6438 69.5087 39.6438C72.4233 39.6487 74.7931 42.0212 74.7931 44.9366C74.7931 47.8537 72.4209 50.2273 69.5043 50.2298C69.4718 50.2298 69.4392 50.229 69.4066 50.23H36.468C36.4405 50.2292 36.4131 50.23 36.3857 50.23H36.3811C33.4623 50.23 31.0879 47.8554 31.0879 44.9366C31.0879 42.0212 33.4575 39.6487 36.3718 39.6438ZM52.9405 133.027C37.3823 133.027 26.6242 131.147 19.0843 127.11C10.2616 122.387 5.97266 114.465 5.97266 102.895C5.97266 93.0914 9.15011 83.0042 14.9197 74.4921C20.5147 66.2376 28.3261 59.7624 36.9626 56.203H68.9071C75.7482 59.0185 81.9524 63.5721 87.0284 69.4946C84.6105 71.5625 83.0734 74.6321 83.0734 78.0558C83.0734 81.327 84.4759 84.2755 86.7097 86.3356C84.4759 88.3956 83.0734 91.3442 83.0734 94.6153C83.0734 97.8861 84.4759 100.835 86.7094 102.895C84.4756 104.955 83.0734 107.903 83.0734 111.174C83.0734 114.446 84.4759 117.394 86.7097 119.454C84.2345 121.702 82.771 125.219 83.1223 128.759C75.8932 131.665 66.2093 133.027 52.9405 133.027ZM133.027 127.734C133.027 130.653 130.653 133.027 127.734 133.027H94.3392C91.4205 133.027 89.0458 130.653 89.0458 127.734C89.0458 124.815 91.4205 122.441 94.3392 122.441H127.734C130.653 122.441 133.027 124.815 133.027 127.734ZM133.027 111.174C133.027 114.093 130.653 116.468 127.734 116.468H94.3392C91.4205 116.468 89.0458 114.093 89.0458 111.174C89.0458 108.256 91.4205 105.881 94.3392 105.881H127.734C130.653 105.881 133.027 108.256 133.027 111.174ZM94.3392 99.9084C91.4205 99.9084 89.0458 97.534 89.0458 94.6153C89.0458 91.6966 91.4205 89.3219 94.3392 89.3219H127.734C130.653 89.3219 133.027 91.6966 133.027 94.6153C133.027 97.534 130.653 99.9084 127.734 99.9084H94.3392Z" fill="white"/>
</g>
<defs>
<clipPath id="clip0_326_943">
<rect width="139" height="139" fill="white"/>
</clipPath>
</defs>
</svg>
