<svg width="54" height="59" viewBox="0 0 54 59" fill="none" xmlns="http://www.w3.org/2000/svg">
<g id="Layer_1" clip-path="url(#clip0_1181_2582)">
<g id="White">
<g id="White_2">
<path id="Vector" d="M39.7983 14.6716C38.9892 13.9762 37.8105 13.9213 36.9415 14.542L22.048 25.1605C21.3463 25.6615 21.0141 26.5289 21.1989 27.3689L23.4315 37.3867C23.5988 38.132 23.6812 38.8823 23.6862 39.6276C23.6862 39.7248 23.7936 39.7796 23.8735 39.7248L37.2037 30.4299C37.6806 30.0959 38.3499 30.3002 38.5547 30.8461C39.2214 32.6234 38.6346 34.6623 36.9964 35.8189C36.9964 35.8189 21.7408 46.5396 16.3468 50.3308C16.1221 50.4879 16.3194 50.8318 16.5691 50.7222L20.4747 49.0048C21.2764 48.6533 22.1679 48.5486 23.0269 48.7231C23.9284 48.9076 24.8524 49.0322 25.7938 49.0895C37.4933 49.7974 47.3124 39.989 46.5932 28.3111C46.2586 22.8623 43.6915 18.0192 39.7958 14.6716H39.7983ZM37.8979 24.6171L27.6018 31.8232C27.2073 32.0999 26.6604 31.8855 26.5555 31.4169L26.096 29.358C25.8887 28.4233 26.2633 27.4537 27.0499 26.9053L38.1052 19.1708C38.5821 18.8368 39.2489 19.0411 39.4537 19.587C40.1229 21.3792 39.5336 23.463 37.8979 24.6196V24.6171Z" fill="white"/>
<path id="Vector_2" d="M17.116 44.5679C18.9389 43.3091 19.818 41.0733 19.336 38.9122L16.7938 27.5035C16.3368 25.4571 17.1509 23.3384 18.859 22.1195L38.2025 8.33038C38.3624 8.21572 38.2225 7.96645 38.0402 8.04622L33.1182 10.1849C32.4964 10.4566 31.8047 10.5139 31.1404 10.3718C29.8044 10.0852 28.4184 9.93561 26.9975 9.93561C16.217 9.93561 7.37929 18.747 7.36681 29.5076C7.35931 35.754 10.2811 41.32 14.836 44.9119C15.333 45.3032 16.0322 45.3157 16.5516 44.9567L17.1135 44.5679H17.116Z" fill="white"/>
</g>
</g>
</g>
<defs>
<clipPath id="clip0_1181_2582">
<rect width="54" height="59" fill="white"/>
</clipPath>
</defs>
</svg>
