<?xml version="1.0" encoding="UTF-8"?>
<svg id="Layer_2" data-name="Layer 2" xmlns="http://www.w3.org/2000/svg" viewBox="0 0 167.77 167.77">
  <defs>
    <style>
      .cls-1 {
        fill: #fff;
      }

      .cls-2 {
        fill: #1c1c3b;
      }
    </style>
  </defs>
  <g id="Layer_1-2" data-name="Layer 1">
    <g>
      <path class="cls-1" d="m167.77,83.89C167.77,37.56,130.22,0,83.89,0S0,37.56,0,83.89c0,41.87,30.68,76.57,70.78,82.87v-58.62h-21.3v-24.25h21.3v-18.48c0-21.02,12.52-32.64,31.69-32.64,9.18,0,18.78,1.64,18.78,1.64v20.64h-10.58c-10.42,0-13.67,6.47-13.67,13.1v15.74h23.27l-3.72,24.25h-19.55v58.62c40.1-6.29,70.78-41,70.78-82.87Z"/>
      <path class="cls-2" d="m116.54,108.14l3.72-24.25h-23.27v-15.74c0-6.63,3.25-13.1,13.67-13.1h10.58v-20.64s-9.6-1.64-18.78-1.64c-19.16,0-31.69,11.61-31.69,32.64v18.48h-21.3v24.25h21.3v58.62c4.27.67,8.65,1.02,13.11,1.02s8.84-.35,13.11-1.02v-58.62h19.55Z"/>
    </g>
  </g>
</svg>