<?xml version="1.0" encoding="UTF-8"?>
<svg id="Layer_2" data-name="Layer 2" xmlns="http://www.w3.org/2000/svg" viewBox="0 0 167.62 167.62">
  <defs>
    <style>
      .cls-1 {
        fill: #fff;
      }

      .cls-2 {
        fill: #1c1c3b;
      }
    </style>
  </defs>
  <g id="Layer_1-2" data-name="Layer 1">
    <g>
      <circle class="cls-1" cx="83.81" cy="83.81" r="83.81"/>
      <path class="cls-2" d="m121.47,43.12c-2.22-1.91-5.44-2.06-7.82-.36l-40.8,29.14c-1.92,1.37-2.83,3.76-2.32,6.06l6.12,27.5c.46,2.05.68,4.11.7,6.15,0,.27.29.42.51.27l36.52-25.51c1.31-.91,3.14-.35,3.7,1.14,1.83,4.88.22,10.47-4.27,13.65,0,0-41.79,29.42-56.57,39.83-.61.43-.08,1.38.61,1.08l10.7-4.71c2.2-.97,4.64-1.25,6.99-.77,2.47.51,5,.85,7.58,1,32.05,1.95,58.95-24.98,56.98-57.02-.92-14.95-7.95-28.25-18.62-37.43Zm-5.2,27.3l-28.2,19.77c-1.08.76-2.58.17-2.87-1.11l-1.26-5.65c-.57-2.57.46-5.22,2.61-6.73l30.28-21.23c1.31-.92,3.14-.35,3.69,1.14,1.83,4.92.22,10.64-4.26,13.81Z"/>
      <path class="cls-2" d="m59.34,125.16c5-3.46,7.4-9.59,6.08-15.52l-6.96-31.31c-1.25-5.61.98-11.43,5.66-14.77l52.99-37.85c.44-.31.05-1-.44-.78l-13.49,5.87c-1.71.74-3.6.9-5.42.51-3.66-.79-7.45-1.2-11.35-1.2-29.53,0-53.74,24.18-53.78,53.71-.02,17.14,7.98,32.42,20.46,42.28,1.36,1.08,3.27,1.11,4.7.12l1.54-1.06Z"/>
    </g>
  </g>
</svg>