<?xml version="1.0" encoding="UTF-8"?>
<svg id="Layer_2" data-name="Layer 2" xmlns="http://www.w3.org/2000/svg" viewBox="0 0 167.62 167.62">
  <defs>
    <style>
      .cls-1 {
        fill: #fff;
      }

      .cls-2 {
        fill: #1c1c3b;
      }
    </style>
  </defs>
  <g id="Layer_1-2" data-name="Layer 1">
    <g>
      <circle class="cls-1" cx="83.81" cy="83.81" r="83.81"/>
      <path class="cls-2" d="m34.64,85.89c-2.64,0-4.89-.71-6.75-2.15-1.86-1.43-3.15-3.46-3.86-6.1-.1-.42.05-.67.43-.77l4.97-1.35c.42-.1.67.06.77.48.35,1.09.91,1.95,1.66,2.58.75.63,1.68.94,2.77.94,1.86,0,3.15-.64,3.86-1.93.71-1.28,1.06-2.97,1.06-5.06v-16.58h-9.83c-.42,0-.63-.21-.63-.63v-4.87c0-.42.21-.63.63-.63h15.72c.42,0,.63.21.63.63v22.75c0,4.44-1,7.66-3.01,9.67-2.01,2.01-4.81,3.01-8.41,3.01Z"/>
      <path class="cls-2" d="m70.22,85.89c-3.44,0-6.5-.76-9.18-2.29-2.68-1.53-4.8-3.66-6.34-6.41-1.54-2.75-2.31-5.97-2.31-9.67s.77-6.92,2.31-9.67c1.54-2.75,3.66-4.88,6.34-6.41,2.68-1.53,5.74-2.29,9.18-2.29s6.5.76,9.18,2.29c2.68,1.53,4.8,3.66,6.34,6.41,1.54,2.75,2.31,5.97,2.31,9.67s-.77,6.92-2.31,9.67c-1.54,2.75-3.66,4.89-6.34,6.41-2.68,1.53-5.75,2.29-9.18,2.29Zm0-6.36c2.28,0,4.25-.51,5.91-1.54,1.66-1.03,2.93-2.45,3.83-4.27.9-1.82,1.35-3.88,1.35-6.2s-.45-4.42-1.35-6.22c-.9-1.8-2.18-3.21-3.83-4.24-1.66-1.03-3.62-1.54-5.91-1.54s-4.21.51-5.88,1.54c-1.67,1.03-2.96,2.44-3.86,4.24-.9,1.8-1.35,3.87-1.35,6.22s.45,4.38,1.35,6.2c.9,1.82,2.19,3.24,3.86,4.27,1.67,1.03,3.63,1.54,5.88,1.54Z"/>
      <path class="cls-2" d="m95.24,85.22c-.42,0-.63-.21-.63-.63v-34.13c0-.42.21-.63.63-.63h5.25c.42,0,.63.21.63.63v34.13c0,.42-.21.63-.63.63h-5.25Z"/>
      <path class="cls-2" d="m109.46,85.22c-.42,0-.63-.21-.63-.63v-34.13c0-.42.21-.63.63-.63h5.54c.32,0,.58.14.77.43l15.81,24.44v-24.25c0-.42.21-.63.63-.63h5.01c.42,0,.63.21.63.63v34.13c0,.42-.21.63-.63.63h-5.5c-.32,0-.58-.14-.77-.43l-15.86-24.49v24.3c0,.42-.21.63-.63.63h-5.01Z"/>
      <path class="cls-2" d="m67.91,138.31c-1.77,0-3.52-.27-5.25-.81-1.72-.54-3.3-1.41-4.73-2.61-1.43-1.2-2.56-2.78-3.4-4.75-.84-1.97-1.26-4.38-1.26-7.24v-20.79c0-.43.21-.64.64-.64h5.37c.43,0,.64.21.64.64v19.6c0,3.55.76,6.12,2.29,7.71,1.53,1.59,3.42,2.39,5.69,2.39,1.51,0,2.86-.35,4.06-1.06s2.16-1.8,2.88-3.28c.72-1.48,1.08-3.4,1.08-5.76v-19.6c0-.43.21-.64.64-.64h5.37c.43,0,.64.21.64.64v20.79c0,2.86-.43,5.27-1.28,7.24-.85,1.97-1.99,3.55-3.4,4.75-1.41,1.2-2.99,2.07-4.73,2.61-1.74.54-3.5.81-5.27.81Z"/>
      <path class="cls-2" d="m101.25,138.31c-3.38,0-6.22-.81-8.52-2.44-2.3-1.62-3.92-4-4.88-7.12-.16-.43-.02-.69.44-.79l5.12-1.23c.39-.1.66.05.79.44.66,1.58,1.54,2.74,2.64,3.5,1.1.76,2.57,1.13,4.41,1.13,1.74,0,3.15-.3,4.24-.91,1.08-.61,1.62-1.58,1.62-2.93s-.53-2.37-1.58-3.18c-1.05-.8-2.5-1.53-4.34-2.19l-3.2-1.13c-2.89-.99-5.15-2.34-6.8-4.06-1.64-1.72-2.46-3.88-2.46-6.48,0-1.97.53-3.72,1.6-5.25,1.07-1.53,2.52-2.72,4.36-3.59,1.84-.87,3.89-1.31,6.16-1.31,3.02,0,5.62.71,7.78,2.14,2.17,1.43,3.71,3.65,4.63,6.67.16.43.02.69-.44.79l-5.42,1.38c-.39.1-.66-.05-.79-.44-.59-1.48-1.36-2.52-2.32-3.13s-2.1-.91-3.45-.91c-1.58,0-2.84.31-3.79.94-.95.62-1.43,1.46-1.43,2.51,0,1.12.49,2.08,1.48,2.88.99.8,2.53,1.57,4.63,2.29l2.56.84c3.28,1.08,5.72,2.48,7.31,4.19,1.59,1.71,2.39,4.06,2.39,7.04,0,2-.54,3.79-1.62,5.34s-2.58,2.78-4.48,3.67-4.12,1.33-6.65,1.33Z"/>
    </g>
  </g>
</svg>