<?xml version="1.0" encoding="UTF-8"?>
<svg id="Layer_2" data-name="Layer 2" xmlns="http://www.w3.org/2000/svg" viewBox="0 0 167.62 167.62">
  <defs>
    <style>
      .cls-1 {
        fill: #fff;
      }

      .cls-2 {
        fill: #1c1c3b;
      }
    </style>
  </defs>
  <g id="Layer_1-2" data-name="Layer 1">
    <g>
      <circle class="cls-1" cx="83.81" cy="83.81" r="83.81"/>
      <path class="cls-2" d="m137.35,56.92c-1.29-4.81-5.07-8.59-9.88-9.88-8.71-2.34-43.66-2.34-43.66-2.34,0,0-34.95,0-43.66,2.34-4.81,1.29-8.59,5.07-9.88,9.88-2.34,8.71-2.34,26.9-2.34,26.9,0,0,0,18.18,2.34,26.9,1.29,4.81,5.07,8.59,9.88,9.88,8.71,2.33,43.66,2.33,43.66,2.33,0,0,34.95,0,43.66-2.33,4.81-1.29,8.59-5.07,9.88-9.88,2.34-8.71,2.34-26.9,2.34-26.9,0,0,0-18.18-2.34-26.9Zm-64.71,43.66v-33.52l29.03,16.76-29.03,16.76Z"/>
    </g>
  </g>
</svg>